<?xml version="1.0" standalone="no"?>
<!DOCTYPE svg PUBLIC "-//W3C//DTD SVG 20010904//EN"
 "http://www.w3.org/TR/2001/REC-SVG-20010904/DTD/svg10.dtd">
<svg version="1.0" xmlns="http://www.w3.org/2000/svg"
 width="700.000000pt" height="700.000000pt" viewBox="0 0 700.000000 700.000000"
 preserveAspectRatio="xMidYMid meet">
<metadata>
Created by potrace 1.11, written by Peter Selinger 2001-2013
</metadata>
<g transform="translate(0.000000,700.000000) scale(0.100000,-0.100000)"
fill="#000000" stroke="none">
<path d="M3337 6124 c-1 -1 -31 -4 -67 -8 -153 -14 -305 -66 -435 -149 -257
-164 -431 -497 -472 -904 -10 -100 -10 -417 0 -506 36 -327 136 -576 304 -756
145 -156 340 -258 548 -287 28 -3 59 -8 70 -10 50 -10 240 -4 326 10 262 42
474 178 624 400 46 69 99 165 93 171 -4 4 -283 172 -307 184 -18 10 -23 4 -59
-67 -42 -84 -53 -100 -122 -172 -114 -119 -250 -170 -442 -165 -57 1 -114 5
-128 9 -271 64 -433 268 -477 601 -7 60 -8 599 0 670 27 245 143 446 312 540
226 127 566 89 725 -81 46 -50 103 -137 126 -193 9 -23 19 -41 23 -41 3 0 60
30 126 66 66 37 136 75 155 85 65 34 64 30 24 107 -148 283 -401 457 -709 488
-66 7 -233 12 -238 8z"/>
<path d="M243 6082 c-13 -2 -23 -6 -24 -10 -5 -38 -2 -337 3 -345 4 -7 124
-10 377 -10 204 0 371 -3 372 -6 0 -3 1 -493 1 -1088 l1 -1083 206 0 206 0 0
1088 0 1087 373 1 c204 0 375 3 378 6 4 5 7 205 5 328 l-1 35 -937 0 c-516 0
-948 -1 -960 -3z"/>
<path d="M5837 3504 c-1 -1 -37 -4 -80 -8 -346 -29 -610 -207 -702 -473 -32
-91 -35 -112 -40 -224 -9 -258 89 -456 290 -584 83 -53 230 -114 314 -130 9
-2 34 -8 56 -13 45 -12 54 -14 210 -43 323 -58 438 -128 480 -289 14 -54 11
-158 -6 -220 -39 -139 -160 -240 -323 -268 -53 -9 -258 -8 -315 2 -141 24
-297 111 -426 237 l-80 78 -76 -72 c-41 -40 -103 -98 -137 -130 -34 -32 -62
-60 -62 -63 0 -15 144 -157 210 -206 124 -94 284 -167 420 -193 414 -80 785 5
1005 230 150 153 217 347 202 589 -17 269 -126 435 -364 555 -106 53 -216 84
-548 156 -206 44 -307 85 -377 154 -43 42 -71 142 -65 232 6 91 30 151 83 202
86 84 209 119 404 114 104 -3 140 -8 215 -32 105 -34 219 -106 297 -190 l52
-54 85 77 c47 42 102 91 121 109 19 17 45 40 58 50 l23 18 -73 76 c-205 212
-438 305 -777 313 -40 0 -73 0 -74 0z"/>
<path d="M2139 3433 c0 -16 -1 -587 -2 -1271 l-2 -1242 198 0 197 0 0 970 c0
681 3 970 11 970 6 0 54 -91 108 -202 54 -112 163 -320 241 -463 79 -143 155
-281 169 -308 14 -26 31 -55 36 -65 6 -10 55 -100 110 -200 99 -181 100 -182
117 -160 10 13 18 26 18 29 0 4 116 217 258 475 142 258 304 565 362 682 57
116 108 212 112 212 4 0 8 -33 8 -72 0 -40 0 -477 0 -970 l0 -898 33 -1 c40 0
327 0 347 0 13 1 15 149 15 1271 l0 1270 -232 0 -231 0 -25 -42 c-13 -24 -57
-106 -97 -183 -40 -77 -83 -158 -95 -180 -12 -22 -60 -112 -105 -200 -46 -88
-91 -173 -100 -190 -10 -16 -54 -100 -98 -185 -137 -265 -160 -305 -174 -308
-9 -2 -31 30 -57 80 -24 46 -60 115 -81 153 -20 39 -65 124 -100 190 -34 66
-82 156 -105 200 -65 123 -151 286 -232 440 -40 77 -83 159 -96 183 l-22 42
-242 0 -243 0 -1 -27z"/>
</g>
</svg>
