<?xml version="1.0" encoding="utf-8"?>
<!-- Generator: Adobe Illustrator 22.0.1, SVG Export Plug-In . SVG Version: 6.00 Build 0)  -->
<svg version="1.1" id="Layer_1" xmlns="http://www.w3.org/2000/svg" xmlns:xlink="http://www.w3.org/1999/xlink" x="0px" y="0px"
	 viewBox="0 0 376.7 204.3" style="enable-background:new 0 0 376.7 204.3;" xml:space="preserve">
<style type="text/css">
	.st0{fill:#FDFEFE;}
	.st1{fill:#124E83;}
	.st2{fill:#383838;}
	.st3{fill:#546B98;}
	.st4{fill:#B7213C;}
	.st5{fill:#F8F9FA;}
</style>
<g>
	<path class="st0" d="M188.4,204.2c-62.4,0-124.8,0-187.2,0c-0.9,0-1.1-0.2-1.1-1.1c0-67.3,0-134.6,0-201.8c0-0.9,0.2-1.1,1.1-1.1
		c124.8,0,249.6,0,374.4,0c0.9,0,1.1,0.2,1.1,1.1c0,67.3,0,134.6,0,201.8c0,0.9-0.2,1.1-1.1,1.1
		C313.2,204.2,250.8,204.2,188.4,204.2z M77.4,3.9c-0.2-0.1-0.2,0-0.2,0.2c0,0.1-0.1,0.1-0.1,0.2c-3,8.4-6.1,16.8-9.1,25.2
		c-3.5,9.5-7,19-10.4,28.5C55,65,52.5,71.9,50,78.9c-0.2,0.5-0.4,0.8-0.9,1c-4.3,1.6-8.5,3.1-12.8,4.7c-6.5,2.4-13,4.8-19.5,7.2
		c-4,1.5-7.9,3-11.9,4.4c-1,0.4-1.3,0.8-1.3,1.9c-0.1,11.7,0.3,23.4-0.2,35.1c-0.2,4.2,0,8.3,0,12.5c-0.1,0.2,0,0.2,0.2,0.2
		c0.5,0,1,0,1.4,0c13.3,0,26.5,0,39.8,0c1,0,1.3,0.2,1.3,1.3c0,8,0,16,0,24c-0.1,0.2,0,0.2,0.2,0.2c1.6,0,3.2,0,4.8,0
		c0.2,0.1,0.2,0,0.2-0.2c0.2-1.6,0.3-3.1,0.5-4.7c0.4-3.5,1.3-6.8,2.8-10c2.3-5,5.4-9.4,9.6-13c3.2-2.8,6.8-5,10.7-6.6
		c3.7-1.5,7.6-2.3,11.6-2.6c1.7-0.1,3.5,0,5.2,0c1.6,0,3.2,0.3,4.7,0.6c5.8,1.3,11,3.7,15.7,7.4c3.8,3,6.8,6.6,9.2,10.6
		c3.3,5.6,4.7,11.7,5,18.1c-0.1,0.2,0,0.2,0.2,0.2c0.3,0,0.6,0,1,0c42.4,0,84.8,0,127.2,0c0.3,0,0.6,0,1,0c0.2,0.1,0.2,0,0.2-0.2
		c0.2-1.6,0.3-3.1,0.5-4.7c0.4-3.5,1.3-6.8,2.8-10c2.3-5,5.4-9.4,9.6-13c3.2-2.8,6.8-5,10.7-6.6c3.7-1.5,7.6-2.3,11.6-2.6
		c1.7-0.1,3.5,0,5.2,0c1.6,0,3.2,0.3,4.7,0.6c5.8,1.3,11,3.7,15.7,7.4c3.8,3,6.8,6.6,9.2,10.6c3.3,5.6,4.7,11.7,5,18.1
		c-0.1,0.2,0,0.2,0.2,0.2c9.5,0,19,0,28.5,0c0.2,0.1,0.2,0,0.2-0.2c0-0.4,0-0.7,0-1.1c0-55,0-109.9,0-164.9c0-0.4,0-0.7,0-1.1
		c0.1-0.2,0-0.2-0.2-0.2c-0.4,0-0.9,0-1.3,0c-93.2,0-186.4,0-279.6,0C78.3,3.9,77.8,3.9,77.4,3.9z M119.9,171.6
		c0-16.9-14-31-30.9-31c-16.9,0-31.1,14-31.1,30.8c0,17,13.9,31.1,30.9,31.1C105.8,202.6,119.8,188.6,119.9,171.6z M324.3,171.7
		c0-16.9-14-31-30.9-31c-16.9,0-31.1,14-31.1,30.8c0,17,13.9,31.1,30.9,31.2C310.2,202.6,324.3,188.6,324.3,171.7z M24.2,147.9
		c-6.3,0-12.6,0-19,0c-0.8,0-1.1,0.2-1.1,1c0,7.9,0,15.8,0,23.6c0,0.8,0.2,1,1,1c12.6,0,25.2,0,37.8,0c0.8,0,1-0.2,1-1
		c0-7.9,0-15.8,0-23.6c0-0.9-0.2-1-1.1-1C36.7,147.9,30.4,147.9,24.2,147.9z M362.3,159.4c0,3.8,0,7.5,0,11.3c0,0.7,0.1,1,0.9,0.9
		c3.6,0,7.2,0,10.8,0c0.7,0,1-0.1,1-0.9c0-7.6,0-15.1,0-22.7c0-0.7-0.2-0.9-0.9-0.9c-3.6,0-7.3,0-10.9,0c-0.8,0-0.9,0.2-0.9,1
		C362.3,151.8,362.3,155.6,362.3,159.4z"/>
	<path class="st1" d="M46.2,171.1c0-8,0-16,0-24c0-1.1-0.3-1.3-1.3-1.3c-13.3,0-26.5,0-39.8,0c-0.5,0-1,0-1.4,0
		c-0.1-0.1-0.1-0.1-0.2-0.2c0-4.2-0.2-8.3,0-12.5c0.5-11.7,0.1-23.4,0.2-35.1c0-1,0.3-1.5,1.3-1.9c4-1.4,8-2.9,11.9-4.4
		c6.5-2.4,13-4.8,19.5-7.2c4.3-1.6,8.5-3.1,12.8-4.7c0.5-0.2,0.7-0.5,0.9-1c2.5-7,4.9-13.9,7.5-20.9c3.5-9.5,7-19,10.4-28.5
		C71,21.1,74,12.7,77.1,4.3c0-0.1,0.1-0.1,0.1-0.2C77.2,4,77.3,4,77.4,3.9c0.4,0,0.9,0,1.3,0c93.2,0,186.4,0,279.6,0
		c0.4,0,0.9,0,1.3,0c0.1,0.1,0.1,0.1,0.2,0.2c0,0.4,0,0.7,0,1.1c0,55,0,109.9,0,164.9c0,0.4,0,0.7,0,1.1c-0.1,0.1-0.1,0.1-0.2,0.2
		c-9.5,0-19,0-28.5,0c-0.1-0.1-0.1-0.1-0.2-0.2c-0.3-6.4-1.7-12.5-5-18.1c-2.4-4.1-5.4-7.7-9.2-10.6c-4.7-3.7-9.9-6.1-15.7-7.4
		c-1.5-0.3-3.1-0.5-4.7-0.6c-1.7-0.1-3.4-0.1-5.2,0c-4,0.2-7.9,1.1-11.6,2.6c-3.9,1.6-7.5,3.8-10.7,6.6c-4.2,3.6-7.3,8-9.6,13
		c-1.4,3.2-2.4,6.5-2.8,10c-0.2,1.6-0.3,3.1-0.5,4.7c-0.1,0.1-0.1,0.1-0.2,0.2c-0.3,0-0.6,0-1,0c-42.4,0-84.8,0-127.2,0
		c-0.3,0-0.6,0-1,0c-0.1-0.1-0.1-0.1-0.2-0.2c-0.3-6.4-1.7-12.5-5-18.1c-2.4-4.1-5.4-7.7-9.2-10.6c-4.7-3.7-9.9-6.1-15.7-7.4
		c-1.5-0.3-3.1-0.5-4.7-0.6c-1.7-0.1-3.4-0.1-5.2,0c-4,0.2-7.9,1.1-11.6,2.6c-3.9,1.6-7.5,3.8-10.7,6.6c-4.2,3.6-7.3,8-9.6,13
		c-1.4,3.2-2.4,6.5-2.8,10c-0.2,1.6-0.3,3.1-0.5,4.7c-0.1,0.1-0.1,0.1-0.2,0.2c-1.6,0-3.2,0-4.8,0C46.3,171.2,46.3,171.2,46.2,171.1
		z M168.6,27.1c0.1,0,0.3,0,0.4,0c1.6,0.1,1.6,0.1,1.6,1.9c0,2.6,0,5.1,0,7.7c0,0.7,0.2,0.9,0.9,0.9c1.1,0,2.2-0.1,3.4,0
		c0.9,0.1,1.2-0.2,1.1-1.1c-0.1-2.8,0-5.5,0-8.3c0-0.8,0.3-1.1,1-1c0.2,0,0.5,0,0.7,0c0.9,0.1,1.3-0.1,1.2-1.1
		c-0.1-0.7-0.1-1.4,0-2.2c0.1-0.9-0.2-1.2-1.1-1.1c-1.8,0.1-1.8,0-1.8-1.8c0,0,0-0.1,0-0.1c0-2.5,0-2.5-2.5-2.5
		c-2.9,0-2.9,0-2.9,2.8c0,1.6,0,1.6-1.6,1.6c-0.2,0-0.4,0-0.6,0c0,0-0.1,0-0.1,0c-2.7,0-2.7,0-2.7-2.7c0-1.7,0-1.7-1.7-1.7
		c-1.2,0-2.7-0.4-3.4,0.2c-0.8,0.6-0.2,2.2-0.2,3.3c0,0.7-0.1,1.1-0.9,0.9c-0.6-0.1-0.8,0.2-0.8,0.8c0,0.9,0,1.8,0,2.8
		c0,0.6,0.1,0.9,0.8,0.8c0.9-0.2,0.9,0.4,0.9,1c0,2.7,0,5.4,0,8.1c0,0.8,0.1,1.2,1.1,1.2c1.1-0.1,2.2-0.1,3.2,0c0.8,0,1-0.2,1-1
		c-0.1-2.4,0-4.8,0-7.2c0-2.1,0-2.1,2.2-2.2C168.1,27.2,168.3,27.2,168.6,27.1z M104,68.6c8.4,0,16.8,0,25.2,0.1
		c0.8,0,0.7-0.5,0.7-1c0-19.9,0-39.8,0-59.7c0-0.8-0.2-1-1-1c-15.4,0-30.9,0-46.3,0c-0.7,0-0.9,0.2-1.2,0.8
		c-2.4,6.8-4.9,13.6-7.3,20.4C70.6,38,67,47.8,63.5,57.6c-1.3,3.6-2.6,7.3-4,11.1c0.5,0,0.9,0,1.3,0c4.6,0,9.1,0,13.7,0
		c6.9,0,13.8,0,20.6,0C98.1,68.6,101,68.6,104,68.6z M291.1,101.2c0.1,0,0.2,0,0.2,0c3.1,5.3,6.2,10.6,9.2,15.9
		c0.4,0.7,0.8,1,1.6,0.9c2.4-0.1,4.7,0,7.1,0c3.1,0,6.2,0,9.2,0c0.8,0,0.9-0.2,0.5-0.8c-0.6-0.8-1.1-1.7-1.7-2.5
		c0.5-0.1,0.8,0.3,1.2,0.4c6.5,3.4,13.4,4.9,20.7,3.4c7.2-1.5,12.1-7,12.6-14.1c0.3-4.8-1.4-8.6-5.6-11.1c-1.6-0.9-3.3-1.3-5.1-1.7
		c-1.8-0.4-3.6-0.8-5.2-1.7c-0.6-0.3-1.2-0.7-1.1-1.6c0.1-0.9,0.7-1.3,1.5-1.5c0.8-0.2,1.6-0.3,2.5-0.2c2.6,0.3,5,1.3,7.1,2.9
		c0.6,0.4,0.8,0.3,1.1-0.3c1.3-3.2,2.6-6.3,4-9.5c0.3-0.7,0.1-0.9-0.5-1.3c-4.8-2.4-9.9-3.7-15.2-3.3c-3.5,0.2-6.8,1.2-9.7,3.3
		c-5.1,3.7-6.9,9.5-5.6,15c1.1,4.8,4.8,7.1,9.3,8.3c1.7,0.4,3.5,0.6,5.2,1.4c0.8,0.4,1.6,0.9,1.4,2c-0.2,1.1-1,1.5-2,1.7
		c-1.1,0.2-2.3,0.1-3.4-0.1c-2.7-0.6-5.1-1.9-7.4-3.5c-0.8-0.6-1.1-0.3-1.4,0.5c-0.7,1.9-1.5,3.7-2.2,5.5c-0.7,1.7-1.4,3.4-2.2,5.3
		c-3.9-5.7-7.6-11.3-11.4-16.8c-0.5-0.7-0.5-1.2,0-1.9c3.4-5.6,6.9-11.1,10.3-16.7c0.6-0.9,1.1-1.9,1.8-3c-5.7,0-11.1,0-16.6,0
		c-0.6,0-0.8,0.4-1,0.8c-1.5,2.8-3,5.7-4.6,8.5c-1.4,2.6-2.8,5.2-4.2,7.7c-0.1,0-0.1,0-0.2-0.1c0-0.4,0-0.8,0-1.1c0-5,0-9.9,0-14.9
		c0-0.8-0.2-1.1-1.1-1.1c-4.2,0-8.5,0.1-12.7,0c-1,0-1.2,0.3-1.1,1.2c0,13.2,0,26.3,0,39.5c0,0.2,0,0.3,0,0.5
		c-0.1,0.6,0.2,0.8,0.8,0.8c4.4,0,8.8,0,13.2,0c0.8,0,0.9-0.4,0.9-1c0-4.4,0-8.9,0-13.3C291.1,102.9,291.1,102,291.1,101.2z
		 M337.3,34.2c-4.4,0-8.7,0-13.1,0c-0.8,0-1.1,0.2-1.1,1.1c0,3.4,0,6.7,0,10.1c0,0.9,0.2,1.1,1.1,1.1c2-0.1,4.1,0,6.1,0
		c0.7,0,0.9,0.2,0.6,0.8c-0.5,1.1-1.2,1.9-2.3,2.5c-3.9,2-9.4,0.4-11.4-3.5c-2.1-4.1-2.1-8.3-0.6-12.6c1.1-3.1,3.2-5.3,6.6-5.7
		c3.4-0.5,6.2,0.6,8.2,3.6c0.4,0.5,0.7,0.5,1.2,0.3c5-1.9,9.9-3.7,14.9-5.5c0.7-0.3,0.7-0.5,0.4-1.1c-2.2-3.4-4.8-6.4-8.2-8.6
		c-5.7-3.7-12-4.8-18.7-4.1c-7.9,0.8-14.4,4.3-19.1,10.7c-4.1,5.6-5.4,11.9-4.8,18.7c0.6,7.4,3.7,13.5,9.5,18.1
		c5.4,4.4,11.8,6.2,18.7,6c10.1-0.3,17.9-4.7,23.1-13.5c3.1-5.2,3.6-11,3.3-16.9c-0.1-1.3-0.5-1.4-1.6-1.4
		C345.8,34.3,341.5,34.2,337.3,34.2z M253.3,38c4.8-1.5,7.2-4.7,7.5-9.4c0.4-5.7-1.5-10.3-6.8-13.1c-2.7-1.5-5.7-2-8.8-2.1
		c-8.2,0-16.3,0-24.5,0c-0.9,0-1.2,0.2-1.2,1.2c0,16.3,0,32.5,0,48.8c0,1,0.3,1.2,1.3,1.2c7.9,0,15.8,0,23.6,0
		c2.2,0,4.4-0.1,6.5-0.6c3.3-0.7,6.5-1.9,8.8-4.4c3.2-3.5,3.7-7.8,3.1-12.2c-0.6-4.4-3.3-7.2-7.4-8.7
		C254.9,38.5,254.2,38.3,253.3,38z M190.1,118c0-0.6-0.3-0.8-0.5-1.1c-3.3-5-6.5-10-9.9-15c-0.5-0.7-0.5-0.9,0.4-1.1
		c2.8-0.7,4.8-2.4,5.9-5.1c1.5-3.5,1.4-7.1,0.3-10.6c-0.9-2.9-2.7-5-5.3-6.5c-2.7-1.6-5.7-2.3-8.8-2.3c-6.7-0.1-13.4,0-20.1-0.1
		c-0.7,0-0.9,0.2-0.8,0.9c0,13.4,0,26.8,0,40.2c0,0.8,0.2,0.9,1,0.9c4.3,0,8.6,0,12.8,0c0.9,0,1.1-0.3,1.1-1.1c0-3.7,0-7.4,0-11
		c0-0.3-0.1-0.7,0.2-1.1c0.2,0.4,0.4,0.8,0.6,1.1c2,3.7,4,7.5,5.9,11.2c0.3,0.6,0.7,0.9,1.5,0.9c4.7,0,9.4,0,14,0
		C188.9,118,189.5,118,190.1,118z M231.2,90.2c0-5,0-9.1,0-13.2c0-0.8-0.2-1-1-1c-4.3,0-8.6,0-13,0c-0.9,0-1.2,0.2-1.2,1.2
		c0,7.2,0,14.3,0,21.5c0,1.4-0.1,2.9-0.5,4.3c-0.5,2-1.8,2.9-3.8,2.9c-2,0-3.2-1-3.6-3c-0.3-1.4-0.4-2.9-0.4-4.3
		c0-7.2,0-14.3,0-21.5c0-0.7-0.1-1-1-1c-4.4,0-8.9,0-13.3,0c-0.7,0-0.9,0.1-0.9,0.9c0.1,8.8-0.2,17.7,0.2,26.5
		c0.3,5.7,2.9,10.1,7.9,13c5.4,3,11.2,3.4,17.1,2c6.6-1.5,12.7-6.3,13.2-15.4C231.3,98.5,231,94,231.2,90.2z M269.8,92.8
		c0-5.2,0-10.1,0-15c0-0.6-0.3-0.8-0.7-0.9c-6.8-2.6-13.6-2.6-20.2,0.7c-6.5,3.3-10.2,8.8-11.2,16c-0.9,6.2,0.2,12,4.1,17.1
		c7.1,8.9,18.2,10.1,27.2,6.7c0.5-0.2,0.6-0.6,0.6-1c0.1-3.6,0.2-7.3,0.3-10.9c0-1.3,0-2.7,0-4.1c-1.4,1-2.8,2-4.4,2.7
		c-2.6,1.2-5.4,1.6-8.1,0.5c-4-1.6-5.8-6.9-3.8-11.2c1.6-3.6,5.6-5.2,9.9-4.2C265.9,89.7,267.8,91.1,269.8,92.8z M288.8,39.1
		c0-8.2,0-16.3,0-24.5c0-0.8-0.1-1.2-1.1-1.2c-5.6,0.1-11.1,0-16.7,0c-0.8,0-1.1,0.2-1.1,1.1c0,16.3,0,32.7,0,49
		c0,0.9,0.3,1.1,1.1,1.1c5.5,0,11,0,16.4,0c1,0,1.3-0.3,1.2-1.3C288.8,55.3,288.8,47.2,288.8,39.1z M130.6,76.1c-5,0-10,0-15,0
		c-0.6,0-1,0-1,0.9c0,4,0,8,0,12c0,0.8,0.3,0.9,1,0.9c2.1,0,4.2,0,6.2,0c1,0,1.2,0.3,1.2,1.3c0,8.5,0,17,0,25.4
		c0,1.7-0.2,1.5,1.6,1.5c4.1,0,8.2,0,12.2,0c1,0,1.3-0.2,1.3-1.3c-0.1-8.6,0-17.1-0.1-25.7c0-1,0.2-1.3,1.2-1.3c2.1,0.1,4.2,0,6.2,0
		c0.8,0,1-0.2,1-1c0-3.9,0-7.8,0-11.8c0-0.9-0.3-1-1.1-1C140.5,76.1,135.5,76.1,130.6,76.1z M153.4,58c0.2,0.4,0.1,0.9,0.1,1.3
		c-0.2,1.2-0.4,2.4-1.7,2.8c-1.4,0.5-2.8,0.5-3.8-0.9c-0.2-0.3-0.4-0.4-0.7-0.4c-1.6,0-3.2,0-4.8,0c-0.5,0-0.6,0.2-0.5,0.7
		c0.3,1.3,1,2.3,2.1,3.1c2.4,1.7,5.1,2.2,8,1.9c3.9-0.4,6.3-2.8,6.7-6.7c0.4-4.8,0.1-9.6,0.2-14.4c0-0.6-0.2-0.8-0.8-0.8
		c-1,0-2.1,0-3.1,0c-0.8,0-1.7-0.2-1.5,1.3c-2.5-2.5-7.2-1.9-9.3,0.2c-2.9,2.9-3.3,7.7-0.9,10.9C145.6,60,149.5,60.4,153.4,58z
		 M178.6,44.6c2.3,4.1,4.5,8,6.7,11.9c0.3,0.6,0.4,1,0,1.6c-1.4,2.5-2.8,5.1-4.2,7.7c-0.3,0.6-0.4,1,0.5,0.9c1.3-0.1,2.6-0.1,4,0
		c0.8,0,1.2-0.3,1.5-1c3.3-6.3,6.7-12.6,10.1-18.9c0.4-0.7,0.9-1.4,1.1-2.3c-1.7,0-3.3,0-4.9,0c-0.8,0-1.2,0.3-1.5,1
		c-1,2.1-2.1,4.2-3.3,6.4c-1.2-2.3-2.3-4.5-3.5-6.7c-0.2-0.4-0.4-0.8-0.9-0.7C182.4,44.6,180.6,44.6,178.6,44.6z M198.6,31.1
		c1.6,0,3.2,0,4.8,0c0.4,0,0.8,0,0.8-0.6c0-3.3-1.3-6.8-5.5-7.9c-1.6-0.4-3.3-0.4-5-0.1c-3.1,0.7-5.4,3.2-5.7,6.2
		c-0.5,4.2,1,7,4.3,8.5c2.7,1.1,5.5,1.1,8.2-0.1c1.5-0.7,2.6-1.7,3.1-3.3c0.3-0.7,0.3-1-0.6-1c-1,0.1-1.9,0-2.9,0
		c-0.8,0-1.4,0.2-2,0.7c-1.5,1.4-4.4,0.5-4.9-1.6c-0.1-0.6-0.1-1,0.7-0.9C195.6,31.2,197.1,31.1,198.6,31.1z M161.9,49.7
		C161.9,49.7,161.9,49.7,161.9,49.7c0,1.4,0,2.9,0,4.3c0.1,2.1,0.8,3.9,2.8,4.8c3.2,1.4,6.5,1.4,9.8,0.1c1.8-0.7,2.7-2.1,3-4
		c0.4-3.2,0.1-6.4,0.2-9.6c0-0.6-0.2-0.8-0.8-0.8c-1.2,0-2.4,0.1-3.6,0c-0.8,0-1.1,0.2-1.1,1.1c0,2.6,0.1,5.1,0,7.7
		c0,1.6-0.8,2.2-2.3,2.3c-1.5,0.1-2.3-0.6-2.5-2.1c-0.1-0.5-0.1-1-0.1-1.4c0-2.2,0-4.4,0-6.6c0-0.6-0.1-0.9-0.8-0.9
		c-1.2,0.1-2.5,0-3.7,0c-0.6,0-0.8,0.2-0.8,0.8C161.9,46.8,161.9,48.3,161.9,49.7z M204.4,59.8c1.5,0.1,2.9-0.3,4.3-1
		c2.2-1.1,2.8-2.9,2.6-5.2c-0.2-2.1-1.7-2.9-3.4-3.4c-0.5-0.2-1.1-0.2-1.6-0.4c-0.7-0.2-1.7-0.2-1.5-1.2c0.2-0.9,1.1-0.8,1.9-0.8
		c0.1,0,0.2,0.1,0.4,0.1c0.7,0,1.5,0.8,2.1,0.4c0.6-0.4,0.8-1.3,1.1-1.9c0.1-0.2,0.2-0.4,0.3-0.5c0.3-0.5,0.3-0.8-0.3-0.9
		c-2.8-0.9-5.6-1.1-8.4,0.4c-1.8,1-2.6,2.8-2.3,5c0.3,2,1.7,2.7,3.3,3.1c0.8,0.2,1.7,0.5,2.5,0.7c0.4,0.1,0.6,0.4,0.6,0.8
		c0,0.5-0.3,0.7-0.7,0.9c-0.9,0.4-1.7,0-2.6-0.1c-0.9-0.1-1.7-1.4-2.6-0.8c-0.7,0.5-0.9,1.7-1.5,2.6c-0.3,0.6-0.3,0.9,0.4,1.2
		C200.8,59.3,202.5,59.8,204.4,59.8z M185.8,25.7c0-3.6,0-7.2,0-10.8c0-1-0.3-1.2-1.2-1.2c-1.1,0.1-2.2,0-3.2,0c-0.7,0-1,0.1-1,0.9
		c0,7.3,0,14.7,0,22c0,0.7,0.3,0.9,0.9,0.9c1.2,0,2.3-0.1,3.5,0c0.9,0.1,1.1-0.3,1.1-1.1C185.8,32.9,185.8,29.3,185.8,25.7z
		 M142.7,25.7c0,3.6,0,7.2,0,10.8c0,0.8,0.2,1.1,1.1,1.1c1.2-0.1,2.3,0,3.5,0c0.6,0,0.8-0.2,0.8-0.8c0-7.4,0-14.8,0-22.2
		c0-0.6-0.2-0.9-0.8-0.8c-1.2,0-2.3,0.1-3.5,0c-0.8,0-1.1,0.2-1.1,1.1C142.7,18.4,142.7,22.1,142.7,25.7z M156.6,30.2
		c0-2.2,0-4.4,0-6.6c0-0.6-0.1-0.9-0.8-0.8c-1.2,0.1-2.5,0-3.7,0c-0.6,0-0.8,0.2-0.8,0.8c0,4.3,0,8.7,0,13c0,0.6,0.1,0.9,0.8,0.8
		c1.2,0,2.5,0,3.7,0c0.7,0,0.8-0.2,0.8-0.8C156.5,34.5,156.6,32.4,156.6,30.2z M156.9,17.2c0-1.7-1.3-2.9-3-2.9c-1.7,0-3,1.3-3,3.1
		c0,1.6,1.4,2.9,3,2.9C155.6,20.2,156.9,18.9,156.9,17.2z"/>
	<path class="st2" d="M119.9,171.6c0,17-14.1,31-31.1,30.9c-16.9,0-30.9-14.1-30.9-31.1c0-16.8,14.2-30.9,31.1-30.8
		C105.9,140.7,119.9,154.7,119.9,171.6z M108.2,171.6c0-10.6-8.5-19.2-18.9-19.3c-11-0.2-19.6,8.6-19.8,19
		c-0.2,10.9,8.6,19.6,19,19.7C99.5,191.1,108.3,182.2,108.2,171.6z"/>
	<path class="st2" d="M324.3,171.7c0,17-14.1,31-31.1,30.9c-16.9,0-30.9-14.1-30.9-31.2c0-16.8,14.2-30.9,31.1-30.8
		C310.4,140.7,324.4,154.7,324.3,171.7z M274.1,171.5c-0.2,10.7,8.5,19.2,18.8,19.4c11,0.2,19.6-8.6,19.8-18.9
		c0.2-11-8.6-19.6-19-19.7C282.8,152.1,273.9,161,274.1,171.5z"/>
	<path class="st1" d="M24.2,147.9c6.2,0,12.5,0,18.7,0c0.8,0,1.1,0.2,1.1,1c0,7.9,0,15.8,0,23.6c0,0.8-0.3,1-1,1
		c-12.6,0-25.2,0-37.8,0c-0.8,0-1-0.2-1-1c0-7.9,0-15.8,0-23.6c0-0.9,0.3-1,1.1-1C11.6,147.9,17.9,147.9,24.2,147.9z"/>
	<path class="st1" d="M362.3,159.4c0-3.8,0-7.5,0-11.3c0-0.7,0.1-1,0.9-1c3.6,0,7.3,0,10.9,0c0.7,0,0.9,0.2,0.9,0.9
		c0,7.6,0,15.1,0,22.7c0,0.8-0.3,0.9-1,0.9c-3.6,0-7.2,0-10.8,0c-0.8,0-0.9-0.2-0.9-0.9C362.3,166.9,362.3,163.1,362.3,159.4z"/>
	<path class="st3" d="M77.4,3.9C77.3,4,77.2,4,77.2,4.1C77.1,3.9,77.2,3.9,77.4,3.9z"/>
	<path class="st3" d="M3.5,145.7c0.1,0.1,0.1,0.1,0.2,0.2C3.5,145.9,3.5,145.8,3.5,145.7z"/>
	<path class="st3" d="M359.8,4.1c-0.1-0.1-0.1-0.1-0.2-0.2C359.8,3.9,359.8,3.9,359.8,4.1z"/>
	<path class="st3" d="M46.2,171.1c0.1,0.1,0.1,0.1,0.2,0.2C46.2,171.3,46.2,171.3,46.2,171.1z"/>
	<path class="st3" d="M51.2,171.3c0.1-0.1,0.1-0.1,0.2-0.2C51.4,171.3,51.4,171.3,51.2,171.3z"/>
	<path class="st3" d="M126.4,171.1c0.1,0.1,0.1,0.1,0.2,0.2C126.4,171.3,126.3,171.3,126.4,171.1z"/>
	<path class="st3" d="M255.7,171.3c0.1-0.1,0.1-0.1,0.2-0.2C255.9,171.3,255.8,171.3,255.7,171.3z"/>
	<path class="st3" d="M330.9,171.1c0.1,0.1,0.1,0.1,0.2,0.2C330.9,171.3,330.8,171.3,330.9,171.1z"/>
	<path class="st3" d="M359.6,171.3c0.1-0.1,0.1-0.1,0.2-0.2C359.8,171.3,359.8,171.3,359.6,171.3z"/>
	<path class="st0" d="M95.1,68.6c-6.9,0-13.8,0-20.6,0c-4.6,0-9.1,0-13.7,0c-0.4,0-0.8,0-1.3,0c1.4-3.8,2.6-7.4,4-11.1
		C67,47.8,70.6,38,74.2,28.2c2.5-6.8,4.9-13.6,7.3-20.4c0.2-0.6,0.5-0.8,1.2-0.8c15.4,0,30.9,0,46.3,0c0.8,0,1,0.2,1,1
		c0,19.9,0,39.8,0,59.7c0,0.5,0.1,1-0.7,1c-8.4,0-16.8,0-25.2-0.1c-0.2-0.8,0.3-1.3,1-1.6c5-2.8,9.9-5.6,14.9-8.4
		c0.7-0.4,0.9-0.7,0.4-1.4c-1-1.6-1.8-3.2-2.7-4.8c-0.3-0.6-0.6-0.8-1.2-0.4c-2.1,1.2-4.2,2.4-6.2,3.5c-2,1.1-4,2.2-6.1,3.4
		c0-1.3,0.1-2.3,0-3.4c-0.1-0.9,0.2-1.3,1-1.7c5.6-2.7,8.1-9.3,5.9-15c-2.2-5.8-8.5-8.9-14.5-7.2c-4.8,1.3-8.2,5.5-8.7,10.5
		c-0.5,4.7,2.1,9.4,6.4,11.7c0.4,0.2,1,0.2,1,1c0,1.3,0,2.6,0,4c-0.7-0.4-1.2-0.7-1.7-0.9c-3.4-1.9-6.9-3.9-10.3-5.8
		c-0.7-0.4-1-0.4-1.4,0.4c-0.8,1.6-1.7,3.1-2.6,4.6c-0.5,0.8-0.4,1.1,0.4,1.6c4.9,2.7,9.7,5.4,14.5,8.1
		C94.8,67.2,95.3,67.7,95.1,68.6z"/>
	<path class="st0" d="M291.1,101.2c0,0.8,0,1.7,0,2.5c0,4.4,0,8.9,0,13.3c0,0.6-0.1,1-0.9,1c-4.4,0-8.8,0-13.2,0
		c-0.6,0-0.9-0.2-0.8-0.8c0-0.2,0-0.3,0-0.5c0-13.2,0-26.3,0-39.5c0-0.9,0.2-1.2,1.1-1.2c4.2,0.1,8.5,0,12.7,0
		c0.8,0,1.1,0.2,1.1,1.1c0,5,0,9.9,0,14.9c0,0.4,0,0.8,0,1.1c0.1,0,0.1,0,0.2,0.1c1.4-2.6,2.8-5.2,4.2-7.7c1.5-2.8,3-5.7,4.6-8.5
		c0.2-0.4,0.4-0.8,1-0.8c5.5,0,10.9,0,16.6,0c-0.6,1.1-1.2,2-1.8,3c-3.4,5.6-6.8,11.2-10.3,16.7c-0.4,0.7-0.4,1.2,0,1.9
		c3.8,5.5,7.5,11.1,11.4,16.8c0.8-1.9,1.5-3.6,2.2-5.3c0.8-1.8,1.5-3.7,2.2-5.5c0.3-0.8,0.5-1,1.4-0.5c2.3,1.6,4.7,2.9,7.4,3.5
		c1.1,0.2,2.3,0.4,3.4,0.1c0.9-0.2,1.8-0.6,2-1.7c0.2-1.1-0.6-1.6-1.4-2c-1.6-0.8-3.4-1-5.2-1.4c-4.5-1.1-8.2-3.4-9.3-8.3
		c-1.3-5.5,0.4-11.3,5.6-15c2.9-2.1,6.2-3.1,9.7-3.3c5.4-0.4,10.5,0.9,15.2,3.3c0.6,0.3,0.8,0.6,0.5,1.3c-1.4,3.1-2.7,6.3-4,9.5
		c-0.3,0.6-0.4,0.8-1.1,0.3c-2.1-1.5-4.5-2.6-7.1-2.9c-0.9-0.1-1.7,0-2.5,0.2c-0.8,0.2-1.4,0.6-1.5,1.5c-0.1,0.8,0.5,1.2,1.1,1.6
		c1.6,0.9,3.4,1.3,5.2,1.7c1.8,0.4,3.5,0.8,5.1,1.7c4.2,2.5,5.9,6.3,5.6,11.1c-0.5,7.1-5.4,12.6-12.6,14.1c-7.3,1.5-14.2,0-20.7-3.4
		c-0.3-0.2-0.6-0.5-1.2-0.4c0.6,0.9,1.1,1.7,1.7,2.5c0.5,0.7,0.3,0.8-0.5,0.8c-3.1,0-6.2,0-9.2,0c-2.4,0-4.7,0-7.1,0
		c-0.8,0-1.2-0.3-1.6-0.9c-3.1-5.3-6.1-10.6-9.2-15.9C291.3,101.2,291.2,101.2,291.1,101.2z"/>
	<path class="st0" d="M337.3,34.2c4.2,0,8.5,0,12.7,0c1.1,0,1.6,0.2,1.6,1.4c0.2,5.9-0.2,11.7-3.3,16.9c-5.2,8.7-13,13.1-23.1,13.5
		c-6.9,0.2-13.3-1.5-18.7-6c-5.7-4.7-8.8-10.8-9.5-18.1c-0.6-6.8,0.7-13.1,4.8-18.7c4.7-6.5,11.2-9.9,19.1-10.7
		c6.7-0.7,13,0.4,18.7,4.1c3.4,2.2,6.1,5.1,8.2,8.6c0.4,0.6,0.3,0.8-0.4,1.1c-5,1.8-9.9,3.7-14.9,5.5c-0.5,0.2-0.8,0.2-1.2-0.3
		c-2-2.9-4.8-4-8.2-3.6c-3.4,0.5-5.5,2.6-6.6,5.7c-1.4,4.2-1.4,8.5,0.6,12.6c2,3.9,7.5,5.5,11.4,3.5c1.1-0.5,1.8-1.3,2.3-2.5
		c0.3-0.7,0.1-0.8-0.6-0.8c-2,0-4.1,0-6.1,0c-0.8,0-1.1-0.2-1.1-1.1c0-3.4,0-6.7,0-10.1c0-0.9,0.3-1.1,1.1-1.1
		C328.6,34.3,332.9,34.2,337.3,34.2z"/>
	<path class="st0" d="M253.3,38c0.9,0.3,1.6,0.4,2.2,0.7c4.1,1.5,6.8,4.3,7.4,8.7c0.6,4.5,0.2,8.7-3.1,12.2
		c-2.4,2.6-5.5,3.7-8.8,4.4c-2.2,0.4-4.3,0.6-6.5,0.6c-7.9,0-15.8,0-23.6,0c-1,0-1.3-0.2-1.3-1.2c0-16.3,0-32.5,0-48.8
		c0-0.9,0.3-1.2,1.2-1.2c8.2,0,16.3,0,24.5,0c3.1,0,6,0.6,8.8,2.1c5.2,2.8,7.1,7.4,6.8,13.1C260.5,33.3,258.1,36.5,253.3,38z
		 M236.9,47.8c0,1.1,0,2.2,0,3.4c0,0.5,0.1,0.8,0.6,0.7c1.3,0,2.6,0,3.9-0.1c2.5-0.3,4-1.7,4.1-3.7c0.1-2.2-1.2-3.6-3.8-4.1
		c-1.4-0.3-2.9-0.1-4.3-0.1c-0.6,0-0.5,0.3-0.5,0.7C236.9,45.7,236.9,46.7,236.9,47.8z M238.9,32.7c0.6,0,1.1,0.1,1.7,0
		c2-0.2,3.2-1.5,3.3-3.3c0.1-1.8-1-3-3-3.4c-1-0.2-2.1-0.1-3.1-0.2c-0.6,0-0.8,0.2-0.8,0.8c0,1.4,0,2.9,0,4.3
		C236.9,32.7,236.9,32.7,238.9,32.7z"/>
	<path class="st0" d="M190.1,118c-0.6,0-1.2,0-1.8,0c-4.7,0-9.4,0-14,0c-0.7,0-1.1-0.2-1.5-0.9c-2-3.7-3.9-7.5-5.9-11.2
		c-0.2-0.3-0.4-0.7-0.6-1.1c-0.3,0.4-0.2,0.7-0.2,1.1c0,3.7,0,7.4,0,11c0,0.8-0.2,1.1-1.1,1.1c-4.3,0-8.6,0-12.8,0
		c-0.7,0-1-0.2-1-0.9c0-13.4,0-26.8,0-40.2c0-0.7,0.2-0.9,0.8-0.9c6.7,0,13.4,0,20.1,0.1c3.1,0,6.1,0.8,8.8,2.3
		c2.6,1.5,4.4,3.7,5.3,6.5c1.1,3.6,1.2,7.1-0.3,10.6c-1.1,2.7-3.1,4.4-5.9,5.1c-0.9,0.2-0.9,0.4-0.4,1.1c3.3,5,6.6,10,9.9,15
		C189.8,117.2,190.1,117.5,190.1,118z M166.1,91c0,0.4,0,0.8,0,1.2c0,3.3,0.1,3.3,3.4,2.7c1.6-0.3,2.8-1,3.1-2.6
		c0.6-3.1-0.6-5.2-4-5.4c-0.4,0-0.9,0-1.3,0c-0.9-0.1-1.3,0.2-1.2,1.2C166.2,89,166.1,90,166.1,91z"/>
	<path class="st0" d="M231.2,90.2c-0.1,3.7,0.1,8.3-0.2,12.8c-0.5,9.1-6.6,13.9-13.2,15.4c-5.9,1.3-11.7,1-17.1-2
		c-5-2.8-7.6-7.2-7.9-13c-0.5-8.8-0.1-17.7-0.2-26.5c0-0.7,0.2-0.9,0.9-0.9c4.4,0,8.9,0,13.3,0c0.9,0,1,0.3,1,1c0,7.2,0,14.3,0,21.5
		c0,1.4,0.1,2.9,0.4,4.3c0.5,2,1.6,3,3.6,3c2,0,3.3-0.9,3.8-2.9c0.4-1.4,0.5-2.8,0.5-4.3c0-7.2,0-14.3,0-21.5c0-1,0.3-1.2,1.2-1.2
		c4.3,0,8.6,0,13,0c0.8,0,1,0.2,1,1C231.2,81.2,231.2,85.3,231.2,90.2z"/>
	<path class="st0" d="M269.8,92.8c-2-1.8-3.9-3.1-6.3-3.7c-4.3-1.1-8.3,0.6-9.9,4.2c-2,4.4-0.2,9.7,3.8,11.2
		c2.8,1.1,5.5,0.6,8.1-0.5c1.6-0.7,3-1.7,4.4-2.7c0,1.4,0,2.8,0,4.1c-0.1,3.6-0.2,7.3-0.3,10.9c0,0.5,0,0.8-0.6,1
		c-9,3.4-20.1,2.3-27.2-6.7c-4-5-5-10.9-4.1-17.1c1-7.2,4.7-12.7,11.2-16c6.5-3.3,13.3-3.4,20.2-0.7c0.4,0.2,0.7,0.3,0.7,0.9
		C269.8,82.7,269.8,87.6,269.8,92.8z"/>
	<path class="st0" d="M288.8,39.1c0,8.1,0,16.2,0,24.3c0,1-0.2,1.3-1.2,1.3c-5.5,0-11,0-16.4,0c-0.9,0-1.2-0.2-1.1-1.1
		c0-16.3,0-32.7,0-49c0-0.8,0.2-1.1,1.1-1.1c5.6,0,11.1,0,16.7,0c1,0,1.1,0.3,1.1,1.2C288.8,22.8,288.8,30.9,288.8,39.1z"/>
	<path class="st0" d="M130.6,76.1c5,0,9.9,0,14.9,0c0.8,0,1.1,0.2,1.1,1c-0.1,3.9,0,7.8,0,11.8c0,0.8-0.2,1-1,1
		c-2.1-0.1-4.2,0-6.2,0c-1,0-1.2,0.3-1.2,1.3c0,8.6,0,17.1,0.1,25.7c0,1.1-0.3,1.3-1.3,1.3c-4.1-0.1-8.2,0-12.2,0
		c-1.8,0-1.6,0.2-1.6-1.5c0-8.5,0-17,0-25.4c0-1-0.2-1.3-1.2-1.3c-2.1,0.1-4.2,0-6.2,0c-0.7,0-1-0.1-1-0.9c0-4,0-8,0-12
		c0-0.8,0.3-0.9,1-0.9C120.6,76.1,125.6,76.1,130.6,76.1z"/>
	<path class="st4" d="M95.1,68.6c0.2-0.9-0.3-1.4-1.1-1.8c-4.9-2.7-9.7-5.4-14.5-8.1c-0.9-0.5-0.9-0.8-0.4-1.6
		c0.9-1.5,1.8-3,2.6-4.6c0.4-0.8,0.7-0.8,1.4-0.4c3.4,2,6.9,3.9,10.3,5.8c0.5,0.3,1,0.6,1.7,0.9c0-1.4,0-2.7,0-4c0-0.8-0.6-0.8-1-1
		c-4.3-2.3-6.9-7-6.4-11.7c0.5-5,3.9-9.1,8.7-10.5c6-1.7,12.2,1.4,14.5,7.2c2.2,5.7-0.3,12.3-5.9,15c-0.8,0.4-1.1,0.8-1,1.7
		c0.1,1.1,0,2.1,0,3.4c2.1-1.2,4.1-2.3,6.1-3.4c2.1-1.2,4.2-2.3,6.2-3.5c0.7-0.4,0.9-0.3,1.2,0.4c0.9,1.6,1.7,3.2,2.7,4.8
		c0.5,0.7,0.3,1-0.4,1.4c-5,2.8-9.9,5.6-14.9,8.4c-0.7,0.4-1.2,0.8-1,1.6C101,68.6,98.1,68.6,95.1,68.6z"/>
	<path class="st5" d="M153.4,58c-3.9,2.4-7.8,2-10.2-1.1c-2.4-3.1-2-8,0.9-10.9c2.1-2.1,6.8-2.8,9.3-0.2c-0.2-1.5,0.7-1.3,1.5-1.3
		c1,0,2.1,0,3.1,0c0.6,0,0.9,0.2,0.8,0.8c-0.1,4.8,0.2,9.6-0.2,14.4c-0.3,3.9-2.7,6.3-6.7,6.7c-2.9,0.3-5.5-0.2-8-1.9
		c-1.1-0.8-1.8-1.8-2.1-3.1c-0.1-0.5,0-0.7,0.5-0.7c1.6,0,3.2,0,4.8,0c0.3,0,0.5,0.1,0.7,0.4c1,1.3,2.4,1.3,3.8,0.9
		c1.3-0.4,1.5-1.6,1.7-2.8C153.5,58.9,153.6,58.4,153.4,58z M147.2,51.9c0,1.9,1.3,3.2,3.2,3.2c1.9,0,3.3-1.3,3.3-3.2
		c0-1.9-1.4-3.4-3.3-3.3C148.6,48.6,147.2,50,147.2,51.9z"/>
	<path class="st5" d="M178.6,44.6c2,0,3.8,0,5.6,0c0.6,0,0.7,0.3,0.9,0.7c1.1,2.2,2.3,4.4,3.5,6.7c1.1-2.2,2.2-4.3,3.3-6.4
		c0.3-0.7,0.7-1,1.5-1c1.6,0.1,3.2,0,4.9,0c-0.2,0.9-0.7,1.6-1.1,2.3c-3.3,6.3-6.7,12.6-10.1,18.9c-0.4,0.7-0.7,1-1.5,1
		c-1.3-0.1-2.6-0.1-4,0c-0.9,0-0.9-0.3-0.5-0.9c1.4-2.6,2.7-5.1,4.2-7.7c0.3-0.6,0.3-1,0-1.6C183,52.6,180.9,48.7,178.6,44.6z"/>
	<path class="st5" d="M198.6,31.1c-1.5,0-3,0-4.6,0c-0.8,0-0.9,0.3-0.7,0.9c0.5,2,3.4,3,4.9,1.6c0.6-0.6,1.2-0.8,2-0.7
		c1,0,1.9,0.1,2.9,0c0.9-0.1,0.9,0.3,0.6,1c-0.6,1.5-1.7,2.6-3.1,3.3c-2.7,1.2-5.5,1.2-8.2,0.1c-3.4-1.4-4.8-4.2-4.3-8.5
		c0.3-3,2.6-5.5,5.7-6.2c1.7-0.4,3.3-0.4,5,0.1c4.2,1.1,5.4,4.6,5.5,7.9c0,0.6-0.3,0.6-0.8,0.6C201.8,31.1,200.2,31.1,198.6,31.1z
		 M196.2,28c0.8,0,1.5,0,2.3,0c0.7,0,0.7-0.3,0.4-0.8c-0.9-1.6-3.7-1.9-5-0.4c-0.2,0.3-0.5,0.6-0.4,0.9c0.1,0.5,0.6,0.2,0.9,0.2
		C195,28,195.6,28,196.2,28z"/>
	<path class="st5" d="M161.9,49.7c0-1.4,0-2.9,0-4.3c0-0.6,0.2-0.9,0.8-0.8c1.2,0,2.5,0.1,3.7,0c0.7,0,0.9,0.3,0.8,0.9
		c0,2.2,0,4.4,0,6.6c0,0.5,0,1,0.1,1.4c0.3,1.6,1,2.2,2.5,2.1c1.5-0.1,2.3-0.7,2.3-2.3c0.1-2.6,0.1-5.1,0-7.7c0-0.8,0.2-1.1,1.1-1.1
		c1.2,0.1,2.4,0,3.6,0c0.6,0,0.8,0.2,0.8,0.8c-0.1,3.2,0.2,6.4-0.2,9.6c-0.2,1.9-1.2,3.3-3,4c-3.3,1.3-6.5,1.3-9.8-0.1
		c-2.1-0.9-2.7-2.7-2.8-4.8C161.8,52.6,161.9,51.1,161.9,49.7C161.9,49.7,161.9,49.7,161.9,49.7z"/>
	<path class="st5" d="M204.4,59.8c-2,0.1-3.6-0.5-5.3-1.2c-0.6-0.3-0.7-0.6-0.4-1.2c0.5-0.9,0.7-2,1.5-2.6c0.9-0.6,1.6,0.7,2.6,0.8
		c0.9,0.1,1.7,0.5,2.6,0.1c0.4-0.2,0.7-0.4,0.7-0.9c0-0.4-0.3-0.7-0.6-0.8c-0.8-0.3-1.7-0.5-2.5-0.7c-1.7-0.5-3.1-1.2-3.3-3.1
		c-0.3-2.2,0.5-4,2.3-5c2.7-1.5,5.5-1.3,8.4-0.4c0.6,0.2,0.7,0.5,0.3,0.9c-0.1,0.2-0.2,0.4-0.3,0.5c-0.4,0.7-0.6,1.6-1.1,1.9
		c-0.6,0.4-1.4-0.3-2.1-0.4c-0.1,0-0.2-0.1-0.4-0.1c-0.8,0-1.7-0.1-1.9,0.8c-0.2,1,0.8,1,1.5,1.2c0.5,0.1,1.1,0.2,1.6,0.4
		c1.7,0.6,3.2,1.4,3.4,3.4c0.2,2.3-0.4,4.1-2.6,5.2C207.3,59.5,205.9,59.9,204.4,59.8z"/>
	<path class="st5" d="M185.8,25.7c0,3.6,0,7.2,0,10.8c0,0.8-0.2,1.1-1.1,1.1c-1.2-0.1-2.3,0-3.5,0c-0.6,0-0.9-0.1-0.9-0.9
		c0-7.3,0-14.7,0-22c0-0.8,0.3-0.9,1-0.9c1.1,0,2.2,0.1,3.2,0c0.9-0.1,1.2,0.2,1.2,1.2C185.7,18.5,185.8,22.1,185.8,25.7z"/>
	<path class="st5" d="M142.7,25.7c0-3.6,0-7.3,0-10.9c0-0.8,0.2-1.1,1.1-1.1c1.2,0.1,2.3,0,3.5,0c0.6,0,0.8,0.2,0.8,0.8
		c0,7.4,0,14.8,0,22.2c0,0.6-0.2,0.8-0.8,0.8c-1.2,0-2.3-0.1-3.5,0c-0.8,0-1.1-0.2-1.1-1.1C142.7,32.9,142.7,29.3,142.7,25.7z"/>
	<path class="st0" d="M169.1,22.8c1.6,0,1.6,0,1.6-1.6c0-2.8,0-2.8,2.9-2.8c2.5,0,2.5,0,2.5,2.5c0,0,0,0.1,0,0.1
		c0,1.8,0,1.9,1.8,1.8c0.9,0,1.2,0.2,1.1,1.1c-0.1,0.7-0.1,1.4,0,2.2c0.1,1-0.3,1.3-1.2,1.1c-0.2,0-0.5,0-0.7,0c-0.8-0.1-1,0.2-1,1
		c0.1,2.8,0,5.5,0,8.3c0,0.9-0.3,1.2-1.1,1.1c-1.1-0.1-2.2-0.1-3.4,0c-0.7,0-0.9-0.2-0.9-0.9c0-2.6,0-5.1,0-7.7c0-1.7,0-1.7-1.6-1.9
		C169,25.7,169.1,24.3,169.1,22.8z"/>
	<path class="st0" d="M168.6,27.1c-0.2,0-0.5,0.1-0.7,0.1c-2.2,0-2.2,0-2.2,2.2c0,2.4,0,4.8,0,7.2c0,0.8-0.2,1-1,1
		c-1.1-0.1-2.2-0.1-3.2,0c-1,0.1-1.1-0.3-1.1-1.2c0-2.7,0-5.4,0-8.1c0-0.7,0-1.2-0.9-1c-0.7,0.1-0.8-0.2-0.8-0.8c0-0.9,0-1.8,0-2.8
		c0-0.6,0.2-0.9,0.8-0.8c0.8,0.1,0.9-0.2,0.9-0.9c0-1.1-0.5-2.7,0.2-3.3c0.7-0.6,2.2-0.2,3.4-0.2c1.7,0,1.7,0,1.7,1.7
		c0,2.7,0,2.7,2.7,2.7c0,0,0.1,0,0.1,0C168.5,24.3,168.6,25.7,168.6,27.1z"/>
	<path class="st0" d="M156.6,30.2c0,2.2,0,4.3,0,6.5c0,0.6-0.1,0.9-0.8,0.8c-1.2,0-2.5,0-3.7,0c-0.7,0-0.8-0.3-0.8-0.8
		c0-4.3,0-8.7,0-13c0-0.6,0.2-0.8,0.8-0.8c1.2,0,2.5,0.1,3.7,0c0.7,0,0.8,0.3,0.8,0.8C156.5,25.8,156.6,28,156.6,30.2z"/>
	<path class="st5" d="M156.9,17.2c0,1.7-1.2,3-2.9,3c-1.6,0-3-1.3-3-2.9c0-1.7,1.3-3.1,3-3.1C155.6,14.3,156.9,15.6,156.9,17.2z"/>
	<path class="st3" d="M168.6,27.1c0-1.4,0-2.9-0.1-4.3c0.2,0,0.4,0,0.6,0c0,1.4,0,2.9-0.1,4.3C168.9,27.1,168.7,27.1,168.6,27.1z"/>
	<path class="st0" d="M108.2,171.6c0.1,10.6-8.7,19.5-19.6,19.3c-10.4-0.2-19.2-8.8-19-19.7c0.2-10.3,8.8-19.1,19.8-19
		C99.7,152.4,108.2,161,108.2,171.6z"/>
	<path class="st0" d="M274.1,171.5c-0.1-10.6,8.7-19.5,19.7-19.3c10.4,0.2,19.2,8.8,19,19.7c-0.2,10.3-8.8,19.1-19.8,18.9
		C282.6,190.7,273.9,182.2,274.1,171.5z"/>
	<path class="st1" d="M236.9,47.8c0-1.1,0-2.2,0-3.2c0-0.4,0-0.7,0.5-0.7c1.4,0.1,2.9-0.1,4.3,0.1c2.7,0.5,3.9,1.8,3.8,4.1
		c-0.1,2-1.6,3.5-4.1,3.7c-1.3,0.1-2.6,0-3.9,0.1c-0.6,0-0.6-0.3-0.6-0.7C237,50.1,236.9,48.9,236.9,47.8z"/>
	<path class="st1" d="M238.9,32.7c-2,0-2,0-2-1.9c0-1.4,0-2.9,0-4.3c0-0.6,0.2-0.8,0.8-0.8c1,0.1,2.1,0,3.1,0.2c2,0.4,3.1,1.6,3,3.4
		c-0.1,1.9-1.3,3.1-3.3,3.3C240,32.7,239.5,32.7,238.9,32.7z"/>
	<path class="st1" d="M166.1,91c0-1,0.1-1.9,0-2.9c-0.1-1,0.3-1.3,1.2-1.2c0.4,0.1,0.9,0,1.3,0c3.4,0.1,4.6,2.3,4,5.4
		c-0.3,1.6-1.6,2.3-3.1,2.6c-3.3,0.6-3.4,0.5-3.4-2.7C166.1,91.8,166.1,91.4,166.1,91z"/>
	<path class="st1" d="M147.2,51.9c0-1.9,1.4-3.2,3.2-3.3c1.9,0,3.3,1.4,3.3,3.3c0,1.9-1.4,3.2-3.3,3.2
		C148.5,55.1,147.2,53.8,147.2,51.9z"/>
	<path class="st1" d="M196.2,28c-0.6,0-1.2,0-1.8,0c-0.3,0-0.8,0.2-0.9-0.2c-0.1-0.3,0.2-0.7,0.4-0.9c1.3-1.5,4.1-1.2,5,0.4
		c0.3,0.5,0.3,0.8-0.4,0.8C197.7,28,197,28,196.2,28z"/>
</g>
</svg>
